<svg width="60" height="60" viewBox="0 0 60 60" fill="none" xmlns="http://www.w3.org/2000/svg">
<path d="M30 55C29.4167 55 28.9167 54.8333 28.5 54.5C28.0833 54.1667 27.7708 53.7292 27.5625 53.1875C26.7708 50.8542 25.7708 48.6667 24.5625 46.625C23.3958 44.5833 21.75 42.1875 19.625 39.4375C17.5 36.6875 15.7708 34.0625 14.4375 31.5625C13.1458 29.0625 12.5 26.0417 12.5 22.5C12.5 17.625 14.1875 13.5 17.5625 10.125C20.9792 6.70833 25.125 5 30 5C34.875 5 39 6.70833 42.375 10.125C45.7917 13.5 47.5 17.625 47.5 22.5C47.5 26.2917 46.7708 29.4583 45.3125 32C43.8958 34.5 42.25 36.9792 40.375 39.4375C38.125 42.4375 36.4167 44.9375 35.25 46.9375C34.125 48.8958 33.1875 50.9792 32.4375 53.1875C32.2292 53.7708 31.8958 54.2292 31.4375 54.5625C31.0208 54.8542 30.5417 55 30 55ZM30 28.75C31.75 28.75 33.2292 28.1458 34.4375 26.9375C35.6458 25.7292 36.25 24.25 36.25 22.5C36.25 20.75 35.6458 19.2708 34.4375 18.0625C33.2292 16.8542 31.75 16.25 30 16.25C28.25 16.25 26.7708 16.8542 25.5625 18.0625C24.3542 19.2708 23.75 20.75 23.75 22.5C23.75 24.25 24.3542 25.7292 25.5625 26.9375C26.7708 28.1458 28.25 28.75 30 28.75Z" fill="#FFCC00"/>
</svg>
